<svg width="89" height="30" viewBox="0 0 89 30" fill="none" xmlns="http://www.w3.org/2000/svg">
<g clip-path="url(#clip0_757_15552)">
<path fill-rule="evenodd" clip-rule="evenodd" d="M19.1585 0.625C21.9701 0.624748 24.7186 1.46763 27.0565 3.04705C29.3943 4.62647 31.2165 6.87149 32.2926 9.49819C33.3687 12.1249 33.6504 15.0153 33.102 17.8039C32.5536 20.5925 31.1997 23.1539 29.2117 25.1644C27.2236 27.1749 24.6906 28.5441 21.9331 29.0988C19.1755 29.6535 16.3172 29.3688 13.7196 28.2807C11.1221 27.1926 8.90192 25.3501 7.33995 22.986C5.77797 20.6219 4.94433 17.8425 4.94446 14.9994C4.94463 11.1872 6.4422 7.53122 9.10779 4.83556C11.7734 2.1399 15.3887 0.625338 19.1585 0.625" fill="#09C6B8"/>
<path fill-rule="evenodd" clip-rule="evenodd" d="M45.2827 12.64H44.5574V21.003C44.5574 24.2533 43.4437 25.1835 41.0065 25.1835C38.7443 25.1835 37.2874 23.9685 37.2874 20.8899V14.6454C37.2874 13.3161 36.6477 12.64 35.4616 12.64H34.5102V21.0309C34.5102 25.4663 37.0343 28.0366 40.834 28.0366C44.9824 28.0366 47.3302 25.6918 47.3302 21.2565V14.6454C47.3302 13.2881 46.5627 12.64 45.284 12.64H45.2827ZM25.2211 8.38993H17.9303V26.1488C17.9091 26.3806 17.9385 26.6143 18.0162 26.8328C18.094 27.0513 18.2181 27.2491 18.3794 27.4116C18.5408 27.5742 18.7353 27.6974 18.9488 27.7723C19.1623 27.8471 19.3893 27.8717 19.6132 27.8442H20.7005V11.2417H25.2494C28.2633 11.2417 29.9311 12.9026 29.9311 14.9282C29.8869 15.9734 29.4483 16.9592 28.7092 17.6747C27.97 18.3903 26.989 18.7787 25.976 18.757C23.0168 18.757 22.0309 17.1644 22.0309 17.1644C21.8144 17.5362 21.7098 17.9662 21.7305 18.3995C21.7305 20.05 23.1963 21.4678 26.1208 21.4678C29.7693 21.3924 32.7039 18.4957 32.7039 14.9308C32.7039 11.3171 29.8776 8.38863 25.2229 8.38863L25.2211 8.38993ZM54.6714 19.7341C58.9936 15.0153 60.2698 14.0246 61.7229 12.8961V12.7564H59.8971C58.8815 12.7564 58.3816 12.8461 57.8666 13.3213C55.8447 15.2051 53.9455 17.2247 52.1813 19.3668V9.19535C52.1813 8.0662 51.3552 7.5 50.2232 7.5H49.411V25.8095C49.411 27.1935 49.9619 27.8442 51.1223 27.8442H52.1813V20.4699C53.9624 22.7754 55.8601 24.9822 57.8666 27.081C58.1279 27.3621 58.444 27.5828 58.794 27.7285C59.144 27.8742 59.52 27.9415 59.8971 27.9261C61.2898 27.9261 61.4635 27.4457 61.6669 26.6825C60.8257 26.4875 60.2446 26.1462 58.9111 24.7889C57.3935 23.2015 55.9787 21.5127 54.6758 19.7334L54.6714 19.7341ZM82.0238 15.1583C83.4165 15.1583 84.0556 14.5362 84.0556 13.6027V12.7577H78.7115V9.64844H78.255C77.6096 9.8013 77.0355 10.1806 76.6307 10.7217C76.1793 11.4135 75.9462 12.2325 75.9633 13.0664V22.8992C75.9633 26.3744 77.4743 28.125 80.9239 28.125C82.7233 28.125 83.8742 27.4476 83.8742 26.1748V25.2726H83.7282C82.9629 25.6129 82.1296 25.7583 81.2985 25.6964C79.6169 25.6964 78.7411 24.7922 78.7411 22.645V15.1583H82.0238ZM74.3968 17.6435C74.3968 14.6279 71.5384 12.4014 68.5044 12.4014C64.361 12.4014 61.2155 15.6413 61.2155 20.5161C61.1821 21.5166 61.3489 22.5135 61.7055 23.4444C62.0621 24.3753 62.6008 25.2204 63.288 25.9266C63.9752 26.6329 64.7961 27.1853 65.6994 27.5492C66.6026 27.9131 67.5689 28.0808 68.5377 28.0418C72.039 28.0418 73.7886 26.8294 73.7886 25.2518V24.1259H73.6325C72.758 24.943 71.2985 25.6762 68.901 25.6762C65.9841 25.6762 64.1696 23.9003 63.9139 21.3943H67.7659C73.1036 21.3943 74.3874 20.2944 74.3874 17.6474L74.3968 17.6435ZM63.8856 19.3635L63.9139 18.744C63.995 17.6338 64.4845 16.5976 65.282 15.8481C66.0795 15.0987 67.1246 14.6928 68.2028 14.7137C70.6532 14.7137 71.8205 16.1529 71.8205 17.7858C71.8205 18.9137 71.1808 19.2517 67.4133 19.307L63.8856 19.3635Z" fill="#FFF200"/>
</g>
<defs>
<clipPath id="clip0_757_15552">
<rect width="89" height="30" fill="white"/>
</clipPath>
</defs>
</svg>
