<svg width="89" height="30" viewBox="0 0 89 30" fill="none" xmlns="http://www.w3.org/2000/svg">
<g clip-path="url(#clip0_386_1794)">
<path fill-rule="evenodd" clip-rule="evenodd" d="M19.1584 0.625C21.9699 0.624748 24.7185 1.46763 27.0563 3.04705C29.3942 4.62647 31.2164 6.87149 32.2925 9.49819C33.3686 12.1249 33.6503 15.0153 33.1019 17.8039C32.5534 20.5924 31.1996 23.1539 29.2116 25.1644C27.2235 27.1749 24.6905 28.5441 21.933 29.0988C19.1754 29.6535 16.3171 29.3688 13.7195 28.2807C11.122 27.1926 8.9018 25.3501 7.33982 22.986C5.77785 20.6219 4.94421 17.8425 4.94434 14.9994C4.9445 11.1872 6.44208 7.53122 9.10767 4.83556C11.7733 2.1399 15.3886 0.625338 19.1584 0.625Z" fill="#F6632A"/>
<path fill-rule="evenodd" clip-rule="evenodd" d="M45.2827 12.64H44.5574V21.003C44.5574 24.2533 43.4436 25.1835 41.0064 25.1835C38.7443 25.1835 37.2874 23.9685 37.2874 20.8899V14.6454C37.2874 13.3161 36.6477 12.64 35.4615 12.64H34.5102V21.0309C34.5102 25.4663 37.0343 28.0366 40.8339 28.0366C44.9824 28.0366 47.3302 25.6918 47.3302 21.2565V14.6454C47.3302 13.2881 46.5627 12.64 45.284 12.64H45.2827ZM25.221 8.38993H17.9302V26.1488C17.9091 26.3806 17.9385 26.6143 18.0162 26.8328C18.0939 27.0513 18.218 27.2491 18.3794 27.4116C18.5408 27.5742 18.7353 27.6974 18.9488 27.7723C19.1623 27.8471 19.3893 27.8717 19.6132 27.8442H20.7005V11.2417H25.2494C28.2633 11.2417 29.9311 12.9026 29.9311 14.9282C29.8869 15.9734 29.4483 16.9592 28.7091 17.6747C27.97 18.3903 26.9889 18.7787 25.9759 18.757C23.0168 18.757 22.0308 17.1644 22.0308 17.1644C21.8143 17.5362 21.7098 17.9662 21.7305 18.3995C21.7305 20.05 23.1962 21.4678 26.1207 21.4678C29.7693 21.3924 32.7039 18.4957 32.7039 14.9308C32.7039 11.3171 29.8776 8.38863 25.2229 8.38863L25.221 8.38993ZM54.6713 19.7341C58.9936 15.0153 60.2698 14.0246 61.7229 12.8961V12.7564H59.897C58.8815 12.7564 58.3816 12.8461 57.8666 13.3213C55.8447 15.2051 53.9455 17.2247 52.1813 19.3668V9.19535C52.1813 8.0662 51.3552 7.5 50.2232 7.5H49.411V25.8095C49.411 27.1935 49.9619 27.8442 51.1223 27.8442H52.1813V20.4699C53.9624 22.7754 55.8601 24.9822 57.8666 27.081C58.1279 27.3621 58.444 27.5828 58.794 27.7285C59.144 27.8742 59.52 27.9415 59.897 27.9261C61.2897 27.9261 61.4635 27.4457 61.6669 26.6825C60.8257 26.4875 60.2446 26.1462 58.9111 24.7889C57.3934 23.2015 55.9786 21.5127 54.6757 19.7334L54.6713 19.7341ZM82.0238 15.1583C83.4165 15.1583 84.0555 14.5362 84.0555 13.6027V12.7577H78.7115V9.64844H78.255C77.6096 9.8013 77.0355 10.1806 76.6306 10.7217C76.1793 11.4135 75.9462 12.2325 75.9632 13.0664V22.8992C75.9632 26.3744 77.4743 28.125 80.9239 28.125C82.7233 28.125 83.8742 27.4476 83.8742 26.1748V25.2726H83.7281C82.9629 25.6129 82.1296 25.7583 81.2985 25.6964C79.6168 25.6964 78.7411 24.7922 78.7411 22.645V15.1583H82.0238ZM74.3968 17.6435C74.3968 14.6279 71.5384 12.4014 68.5043 12.4014C64.3609 12.4014 61.2154 15.6413 61.2154 20.5161C61.1821 21.5166 61.3489 22.5135 61.7055 23.4444C62.0621 24.3753 62.6008 25.2204 63.288 25.9266C63.9752 26.6329 64.7961 27.1853 65.6993 27.5492C66.6026 27.9131 67.5688 28.0808 68.5377 28.0418C72.0389 28.0418 73.7886 26.8294 73.7886 25.2518V24.1259H73.6325C72.7579 24.943 71.2985 25.6762 68.901 25.6762C65.984 25.6762 64.1695 23.9003 63.9139 21.3943H67.7658C73.1036 21.3943 74.3874 20.2944 74.3874 17.6474L74.3968 17.6435ZM63.8856 19.3635L63.9139 18.744C63.9949 17.6338 64.4844 16.5976 65.282 15.8481C66.0795 15.0987 67.1246 14.6928 68.2028 14.7137C70.6532 14.7137 71.8205 16.1529 71.8205 17.7858C71.8205 18.9137 71.1808 19.2517 67.4132 19.307L63.8856 19.3635Z" fill="#FFF200"/>
</g>
<defs>
<clipPath id="clip0_386_1794">
<rect width="89" height="30" fill="white"/>
</clipPath>
</defs>
</svg>
