<svg width="20" height="20" viewBox="0 0 20 20" fill="none" xmlns="http://www.w3.org/2000/svg">
<path fill-rule="evenodd" clip-rule="evenodd" d="M5.28589 2.59499H18.5392L18.5391 2.59467C18.7357 2.59467 18.9198 2.68123 19.0369 2.84136C19.1541 3.0015 19.1959 3.20489 19.1457 3.39965L17.8488 8.4851C17.4848 9.909 16.2382 10.9044 14.8158 10.9044H6.67904L6.71251 11.1035C6.8631 12.047 7.64541 12.7221 8.56997 12.7221H16.8073C17.1545 12.7221 17.4348 13.0121 17.4348 13.3713C17.4348 13.7305 17.1545 14.0205 16.8073 14.0205H8.57417C7.03044 14.0205 5.72938 12.8865 5.47837 11.3112L5.28593 10.1253L4.09362 3.02343C3.99739 2.44781 3.48699 2.0583 2.92641 2.13621L1.54168 2.32663C1.19863 2.37424 0.884866 2.12324 0.838853 1.76835C0.792839 1.41346 1.03546 1.08887 1.37851 1.04126L2.76324 0.855165C3.92208 0.695028 4.98886 1.42647 5.28589 2.59499ZM14.8159 9.60632C15.6693 9.60632 16.4182 9.01341 16.6357 8.16081L17.7279 3.8933H5.5119L6.46993 9.60632H14.8159ZM8.01802 14.7911C6.84247 14.7911 5.88862 15.7735 5.88862 16.981C5.88862 18.1885 6.84664 19.1666 8.01802 19.1666C9.1894 19.1666 10.1474 18.1842 10.1474 16.981C10.1516 15.7692 9.19357 14.7911 8.01802 14.7911ZM8.01802 17.8682C7.53692 17.8682 7.14368 17.4701 7.14368 16.981C7.14368 16.4919 7.53692 16.0895 8.01802 16.0895C8.49912 16.0895 8.89236 16.4876 8.89236 16.981C8.89654 17.4657 8.50329 17.8682 8.01802 17.8682ZM15.5106 14.7911C14.3351 14.7911 13.3812 15.7735 13.3812 16.981C13.3812 18.1885 14.3393 19.1666 15.5106 19.1666C16.682 19.1666 17.64 18.1842 17.64 16.981C17.6442 15.7692 16.6862 14.7911 15.5106 14.7911ZM15.5106 17.8682C15.0295 17.8682 14.6363 17.4701 14.6363 16.981C14.6363 16.4919 15.0295 16.0895 15.5106 16.0895C15.9917 16.0895 16.385 16.4876 16.385 16.981C16.3892 17.4657 15.9959 17.8682 15.5106 17.8682Z" fill="white"/>
</svg>
