<svg width="13" height="14" viewBox="0 0 13 14" fill="none" xmlns="http://www.w3.org/2000/svg">
<path fill-rule="evenodd" clip-rule="evenodd" d="M5.875 0.75C8.9816 0.75 11.5 3.2684 11.5 6.375C11.5 7.70299 11.0398 8.92349 10.2702 9.88573L12.5669 12.1831C12.811 12.4271 12.811 12.8229 12.5669 13.0669C12.3229 13.311 11.9271 13.311 11.6831 13.0669L9.38573 10.7702C8.42349 11.5398 7.20299 12 5.875 12C2.7684 12 0.25 9.4816 0.25 6.375C0.25 3.2684 2.7684 0.75 5.875 0.75ZM5.875 2C3.45875 2 1.5 3.95875 1.5 6.375C1.5 8.79125 3.45875 10.75 5.875 10.75C7.05655 10.75 8.1287 10.2816 8.91591 9.5204L8.96431 9.46431C8.98209 9.44652 9.00069 9.43003 9.01997 9.41484C9.78162 8.6287 10.25 7.55655 10.25 6.375C10.25 3.95875 8.29125 2 5.875 2Z" fill="#2AD2C5"/>
</svg>
