<svg width="15" height="16" viewBox="0 0 15 16" fill="none" xmlns="http://www.w3.org/2000/svg">
<path fill-rule="evenodd" clip-rule="evenodd" d="M6.875 1.75C9.9816 1.75 12.5 4.2684 12.5 7.375C12.5 8.70299 12.0398 9.92349 11.2702 10.8857L13.5669 13.1831C13.811 13.4271 13.811 13.8229 13.5669 14.0669C13.3229 14.311 12.9271 14.311 12.6831 14.0669L10.3857 11.7702C9.42349 12.5398 8.20299 13 6.875 13C3.7684 13 1.25 10.4816 1.25 7.375C1.25 4.2684 3.7684 1.75 6.875 1.75ZM6.875 3C4.45875 3 2.5 4.95875 2.5 7.375C2.5 9.79125 4.45875 11.75 6.875 11.75C8.05655 11.75 9.1287 11.2816 9.91591 10.5204L9.96431 10.4643C9.9821 10.4465 10.0007 10.43 10.02 10.4148C10.7816 9.6287 11.25 8.55655 11.25 7.375C11.25 4.95875 9.29125 3 6.875 3Z" fill="#FC6363"/>
</svg>
