<svg width="17" height="16" viewBox="0 0 17 16" fill="none" xmlns="http://www.w3.org/2000/svg">
<path d="M15.1066 5.5555L14.011 2.68661C13.9593 2.55125 13.8681 2.43458 13.7492 2.35175C13.6303 2.26892 13.4893 2.22377 13.3444 2.22217H3.66436C3.51947 2.22377 3.37842 2.26892 3.25953 2.35175C3.14063 2.43458 3.04941 2.55125 2.9977 2.68661L1.89325 5.5555C1.85336 5.67516 1.8331 5.80048 1.83325 5.92661C1.83325 6.74439 2.68436 7.40883 3.7377 7.40883C4.70881 7.40883 5.51548 6.84217 5.62881 6.11328L5.83325 4.70439H6.72214L6.60436 5.83328C6.60436 5.86439 6.60436 5.89328 6.60436 5.92661C6.60436 6.74439 7.4577 7.40883 8.50881 7.40883C9.55992 7.40883 10.4133 6.74217 10.4133 5.92661C10.4133 5.8955 10.4133 5.86661 10.4133 5.83772L10.2777 4.70439H11.1666L11.3888 6.10661C11.5021 6.83995 12.3044 7.40883 13.2799 7.40883C14.331 7.40883 15.1844 6.74217 15.1844 5.92661C15.1785 5.79954 15.1522 5.67425 15.1066 5.5555Z" fill="white"/>
<path d="M12.2043 7.95996V10.4444C12.2043 10.5623 12.1575 10.6753 12.0741 10.7587C11.9908 10.842 11.8777 10.8889 11.7599 10.8889H5.23987C5.122 10.8889 5.00895 10.842 4.9256 10.7587C4.84225 10.6753 4.79543 10.5623 4.79543 10.4444V7.9644C4.45619 8.08673 4.09827 8.14914 3.73765 8.14885C3.59626 8.14679 3.45518 8.13491 3.31543 8.11329V12.8155C3.31602 13.0906 3.42554 13.3542 3.62004 13.5487C3.81453 13.7432 4.07815 13.8527 4.35321 13.8533H12.6488C12.9238 13.8527 13.1874 13.7432 13.3819 13.5487C13.5764 13.3542 13.686 13.0906 13.6865 12.8155V8.11329C13.5467 8.13452 13.4057 8.1464 13.2643 8.14885C12.9026 8.14866 12.5438 8.08472 12.2043 7.95996Z" fill="white"/>
</svg>
