<svg width="24" height="24" viewBox="0 0 24 24" fill="none" xmlns="http://www.w3.org/2000/svg">
<path fill-rule="evenodd" clip-rule="evenodd" d="M24 11.694C24 18.1488 18.7272 23.3797 12.2221 23.3797C10.16 23.3797 8.21516 22.8516 6.53021 21.9211L0 24L2.12924 17.7297C1.05623 15.9693 0.435906 13.8987 0.435906 11.694C0.435906 5.23088 5.7087 0 12.2138 0C18.7272 0 24 5.23088 24 11.694ZM12.2138 1.86099C6.74817 1.86099 2.30527 6.27035 2.30527 11.6856C2.30527 13.8316 3.00943 15.8268 4.19141 17.4446L2.95075 21.0912L6.75655 19.884C8.32414 20.9067 10.1935 21.5103 12.2054 21.5103C17.6626 21.5103 22.1055 17.1009 22.1055 11.6856C22.1223 6.27035 17.6794 1.86099 12.2138 1.86099ZM18.1656 14.3849C18.0901 14.2676 17.8973 14.1921 17.6123 14.0496C17.3273 13.9071 15.9022 13.2113 15.6423 13.1191C15.3741 13.0269 15.1813 12.9766 14.9969 13.2616C14.8041 13.5466 14.2508 14.1921 14.0831 14.3849C13.9155 14.5777 13.7478 14.6029 13.4544 14.4604C13.161 14.3178 12.2305 14.0161 11.1324 13.0353C10.2773 12.2724 9.69892 11.3336 9.52288 11.0486C9.35522 10.7635 9.50611 10.6043 9.64862 10.4618C9.78275 10.336 9.94202 10.1264 10.0845 9.95879C10.227 9.79113 10.2773 9.67377 10.3695 9.48096C10.4618 9.28816 10.4198 9.1205 10.3444 8.978C10.2689 8.83549 9.69892 7.42717 9.45582 6.84876C9.21272 6.27873 8.978 6.29549 8.81034 6.29549C8.64268 6.29549 8.33252 6.34579 8.33252 6.34579C8.33252 6.34579 7.75411 6.42124 7.48585 6.70625C7.2176 6.99127 6.47153 7.68704 6.47153 9.09536C6.47153 10.5037 7.50262 11.8701 7.65351 12.0545C7.79602 12.2473 9.64862 15.2316 12.5826 16.38C15.5166 17.5285 15.5166 17.1429 16.0447 17.0926C16.5728 17.0423 17.7548 16.3968 17.9979 15.7345C18.241 15.0723 18.241 14.5023 18.1656 14.3849Z" fill="white"/>
</svg>
